<mxfile host="app.diagrams.net" modified="2023-10-30T22:06:05.399Z" agent="Mozilla/5.0 (Macintosh; Intel Mac OS X 10_15_7) AppleWebKit/537.36 (KHTML, like Gecko) Chrome/117.0.0.0 Safari/537.36" version="22.0.8" etag="0ug8vwyzpFfZRfASZnoe" type="github">
  <diagram name="Page-1" id="pA7t2PD7Gph8B7asvuh2">
    <mxGraphModel>
      <root>
        <mxCell id="0" />
        <mxCell id="1" parent="0" />
      </root>
    </mxGraphModel>
  </diagram>
</mxfile>
